<svg viewBox="64 64 896 896" xmlns="http://www.w3.org/2000/svg" width="20" height="20" fill="none">
<path fill="rgb(223,223,223)" fill-rule="evenodd" d="M512 108.8C288.94 108.8 108.8 288.94 108.8 512s180.14 403.2 403.2 403.2 403.2-180.14 403.2-403.2S735.06 108.8 512 108.8zM945 392H689c-4.4 0-8 3.6-8 8v48c0 4.4 3.6 8 8 8h256c4.4 0 8-3.6 8-8v-48c0-4.4-3.6-8-8-8zM811 528H689c-4.4 0-8 3.6-8 8v48c0 4.4 3.6 8 8 8h122c4.4 0 8-3.6 8-8v-48c0-4.4-3.6-8-8-8zM688.5 649.7l-28.6 39a7.99 7.99 0 01-11.2 1.7L483.3 569.8a7.92 7.92 0 01-3.3-6.5V288c0-4.4 3.6-8 8-8h48.1c4.4 0 8 3.6 8 8v247.5l142.6 103.1c3.6 2.5 4.4 7.5 1.8 11.1z"/>
</svg>
