<svg t="1787622858161" class="icon" viewBox="0 0 1024 1024" version="1.1" xmlns="http://www.w3.org/2000/svg"
     p-id="17193" width="16" height="16">
  <path
    d="M768 426.666667a213.333333 213.333333 0 0 1 213.333333 213.333333c0 78.506667-71.125333 192.341333-213.333333 341.333333-142.208-148.992-213.333333-262.826667-213.333333-341.333333a213.333333 213.333333 0 0 1 213.333333-213.333333z m0 85.333333a128 128 0 0 0-128 128c0 35.541333 32 96.682667 97.450667 178.005333l17.834666 21.674667 12.714667 14.933333 3.242667-3.754666c80.64-93.994667 121.557333-165.034667 124.586666-206.08L896 640a128 128 0 0 0-128-128z m0 85.333333a42.666667 42.666667 0 1 1 0 85.333334 42.666667 42.666667 0 0 1 0-85.333334z m-256-256a42.666667 42.666667 0 0 1 0 85.333334H298.666667a42.666667 42.666667 0 1 1 0-85.333334h213.333333zM298.666667 213.333333h426.666666a42.666667 42.666667 0 0 1 0 85.333334H298.666667a42.666667 42.666667 0 1 1 0-85.333334z"
    fill="#dfdfdf" p-id="17194"></path>
  <path
    d="M853.333333 42.666667a85.333333 85.333333 0 0 1 85.333334 85.333333v213.333333h-85.333334V128H170.666667v768h341.333333v85.333333H170.666667a85.333333 85.333333 0 0 1-85.333334-85.333333V128a85.333333 85.333333 0 0 1 85.333334-85.333333h682.666666z"
    fill="#dfdfdf" p-id="17195"></path>
  <path d="M896 341.333333m-42.666667 0a42.666667 42.666667 0 1 0 85.333334 0 42.666667 42.666667 0 1 0-85.333334 0Z"
        fill="#dfdfdf" p-id="17196"></path>
  <path d="M512 938.666667m-42.666667 0a42.666667 42.666667 0 1 0 85.333334 0 42.666667 42.666667 0 1 0-85.333334 0Z"
        fill="#dfdfdf" p-id="17197"></path>
</svg>
