<svg t="1787298124053" class="icon" viewBox="0 0 1024 1024" version="1.1" xmlns="http://www.w3.org/2000/svg" p-id="62764" width="20" height="20"><path d="M760.039737 695.813718l-8.320423 5.57145v150.296821c0 14.979701-14.553389 27.151627-32.399667 27.151627H108.827012c-17.875678 0-32.429068-12.171926-32.429068-27.151627V293.316949c0-15.009102 14.553389-27.195728 32.429068-27.195728h145.475093l3.675098-1.617043c29.9006-13.524362 51.56898-25.593385 70.311981-39.20595l46.747251-33.987309H108.827012c-59.198484 0-107.283471 45.762324-107.283471 101.991329v558.35034c0 56.214304 48.084987 101.976629 107.283471 101.976629h610.507336c59.124982 0 107.209969-45.747624 107.209969-101.976629V643.392116l-30.826725 25.696287a457.329237 457.329237 0 0 1-35.677855 26.725315z" fill="#DFDFDF" p-id="62765"></path><path d="M170.965575 731.785581c72.634644-124.850441 288.789227-175.169887 288.789227-175.169887l199.381435-7.408998v169.539636l363.334922-317.646099L657.283987 70.356083V228.738121H461.665853C135.552327 303.298516 170.965575 731.785581 170.965575 731.785581z" fill="#DFDFDF" p-id="62766"></path></svg>
